<svg width="42" height="24" viewBox="0 0 42 24" fill="none" xmlns="http://www.w3.org/2000/svg">
<path d="M2 2H3.74001C4.82001 2 5.67 2.93 5.58 4L4.75 13.96C4.61 15.59 5.89999 16.99 7.53999 16.99H18.19C19.63 16.99 20.89 15.81 21 14.38L21.54 6.88C21.66 5.22 20.4 3.87 18.73 3.87H5.82001" stroke="white" stroke-width="1.5" stroke-miterlimit="10" stroke-linecap="round" stroke-linejoin="round"/>
<path d="M16.25 22C16.9404 22 17.5 21.4404 17.5 20.75C17.5 20.0596 16.9404 19.5 16.25 19.5C15.5596 19.5 15 20.0596 15 20.75C15 21.4404 15.5596 22 16.25 22Z" stroke="white" stroke-width="1.5" stroke-miterlimit="10" stroke-linecap="round" stroke-linejoin="round"/>
<path d="M8.25 22C8.94036 22 9.5 21.4404 9.5 20.75C9.5 20.0596 8.94036 19.5 8.25 19.5C7.55964 19.5 7 20.0596 7 20.75C7 21.4404 7.55964 22 8.25 22Z" stroke="white" stroke-width="1.5" stroke-miterlimit="10" stroke-linecap="round" stroke-linejoin="round"/>
<path d="M9 8H21" stroke="white" stroke-width="1.5" stroke-miterlimit="10" stroke-linecap="round" stroke-linejoin="round"/>
<rect x="27" y="4.5" width="14.2105" height="15" rx="7.10526" fill="#A7F65C"/>
<path d="M31.6926 11.5042C31.6926 10.4179 31.8694 9.57158 32.2231 8.96526C32.5768 8.35263 33.1958 8.04632 34.08 8.04632C34.9579 8.04632 35.5736 8.35263 35.9273 8.96526C36.281 9.57158 36.4579 10.4179 36.4579 11.5042C36.4579 12.6095 36.281 13.4684 35.9273 14.0811C35.5736 14.6937 34.9579 15 34.08 15C33.1958 15 32.5768 14.6937 32.2231 14.0811C31.8694 13.4684 31.6926 12.6095 31.6926 11.5042ZM35.6052 11.5042C35.6052 10.9547 35.5673 10.4905 35.4915 10.1116C35.4221 9.72632 35.2736 9.41684 35.0463 9.18316C34.8252 8.94947 34.5031 8.83263 34.08 8.83263C33.6505 8.83263 33.3221 8.94947 33.0947 9.18316C32.8736 9.41684 32.7252 9.72632 32.6494 10.1116C32.58 10.4905 32.5452 10.9547 32.5452 11.5042C32.5452 12.0726 32.58 12.5495 32.6494 12.9347C32.7252 13.32 32.8736 13.6295 33.0947 13.8632C33.3221 14.0968 33.6505 14.2137 34.08 14.2137C34.5031 14.2137 34.8252 14.0968 35.0463 13.8632C35.2736 13.6295 35.4221 13.32 35.4915 12.9347C35.5673 12.5495 35.6052 12.0726 35.6052 11.5042Z" fill="#003585"/>
</svg>
